<svg width="102" height="29" viewBox="0 0 102 29" fill="none" xmlns="http://www.w3.org/2000/svg">
<path d="M14.056 19.4H6.256L4.768 23H0.784L8.272 6.2H12.112L19.624 23H15.544L14.056 19.4ZM12.832 16.448L10.168 10.016L7.504 16.448H12.832ZM36.655 23L36.631 12.92L31.687 21.224H29.935L25.015 13.136V23H21.367V6.2H24.583L30.871 16.64L37.063 6.2H40.255L40.303 23H36.655ZM49.8089 23.288C48.4809 23.288 47.1929 23.112 45.9449 22.76C44.7129 22.392 43.7209 21.92 42.9689 21.344L44.2889 18.416C45.0089 18.944 45.8649 19.368 46.8569 19.688C47.8489 20.008 48.8409 20.168 49.8329 20.168C50.9369 20.168 51.7529 20.008 52.2809 19.688C52.8089 19.352 53.0729 18.912 53.0729 18.368C53.0729 17.968 52.9129 17.64 52.5929 17.384C52.2889 17.112 51.8889 16.896 51.3929 16.736C50.9129 16.576 50.2569 16.4 49.4249 16.208C48.1449 15.904 47.0969 15.6 46.2809 15.296C45.4649 14.992 44.7609 14.504 44.1689 13.832C43.5929 13.16 43.3049 12.264 43.3049 11.144C43.3049 10.168 43.5689 9.288 44.0969 8.504C44.6249 7.704 45.4169 7.072 46.4729 6.608C47.5449 6.144 48.8489 5.912 50.3849 5.912C51.4569 5.912 52.5049 6.04 53.5289 6.296C54.5529 6.552 55.4489 6.92 56.2169 7.4L55.0169 10.352C53.4649 9.472 51.9129 9.032 50.3609 9.032C49.2729 9.032 48.4649 9.208 47.9369 9.56C47.4249 9.912 47.1689 10.376 47.1689 10.952C47.1689 11.528 47.4649 11.96 48.0569 12.248C48.6649 12.52 49.5849 12.792 50.8169 13.064C52.0969 13.368 53.1449 13.672 53.9609 13.976C54.7769 14.28 55.4729 14.76 56.0489 15.416C56.6409 16.072 56.9369 16.96 56.9369 18.08C56.9369 19.04 56.6649 19.92 56.1209 20.72C55.5929 21.504 54.7929 22.128 53.7209 22.592C52.6489 23.056 51.3449 23.288 49.8089 23.288ZM67.0576 23.288C64.6576 23.288 62.7856 22.624 61.4416 21.296C60.1136 19.968 59.4496 18.072 59.4496 15.608V6.2H63.3376V15.464C63.3376 18.472 64.5856 19.976 67.0816 19.976C68.2976 19.976 69.2256 19.616 69.8656 18.896C70.5056 18.16 70.8256 17.016 70.8256 15.464V6.2H74.6656V15.608C74.6656 18.072 73.9936 19.968 72.6496 21.296C71.3216 22.624 69.4576 23.288 67.0576 23.288ZM86.3373 17.048V23H82.4492V17L75.9452 6.2H80.0733L84.5613 13.664L89.0493 6.2H92.8653L86.3373 17.048Z" fill="black"/>
<circle cx="98.5" cy="19.5" r="3.5" fill="#1B4965"/>
</svg>
